<svg xmlns="http://www.w3.org/2000/svg" viewBox="0 0 200 200" width="200" height="200">
  <path d="M 41.00,49.00 L 30.00,49.00 L 30.00,60.00 L 20.00,60.00 L 20.00,140.00 L 30.00,140.00 L 30.00,150.00 L 36.00,150.00 L 40.00,150.00 L 40.00,158.50 L 50.00,158.50 L 50.00,146.00 L 41.00,146.00 L 41.00,141.00 L 41.00,141.00 L 41.00,140.00 L 41.00,140.00 L 41.00,133.00 L 50.00,133.00 L 50.00,50.00 L 70.00,50.00 L 70.00,60.00 L 130.00,60.00 L 130.00,50.00 L 150.00,50.00 L 150.00,41.00 L 150.00,41.00 L 150.00,120.00 L 140.00,120.00 L 140.00,130.00 L 130.00,130.00 L 130.00,136.00 L 120.00,136.00 L 120.00,180.00 L 130.00,180.00 L 130.00,180.00 L 140.00,180.00 L 140.00,170.00 L 140.00,170.00 L 150.00,170.00 L 150.00,160.00 L 159.00,160.00 L 159.00,150.00 L 169.00,150.00 L 169.00,140.00 L 179.00,140.00 L 179.00,60.00 L 169.00,60.00 L 169.00,50.00 L 159.00,50.00 L 159.00,40.00 L 150.00,40.00 L 150.00,30.00 L 140.00,30.00 L 140.00,20.00 L 60.00,20.00 L 60.00,30.00 L 50.00,30.00 L 50.00,40.00 L 41.00,40.00 L 41.00,49.00 Z" fill="white" fill-rule="evenodd"/>
  <path d="M 60.00,140.00 L 60.00,145.50 L 70.00,145.50 L 70.00,150.00 L 80.00,150.00 L 80.00,136.00 L 70.00,136.00 L 70.00,130.00 L 60.00,130.00 L 60.00,120.00 L 50.00,120.00 L 50.00,140.00 L 60.00,140.00 Z" fill="white" fill-rule="evenodd"/>
  <path d="M 60.00,153.00 L 50.00,153.00 L 50.00,170.00 L 60.00,170.00 L 60.00,153.00 Z" fill="white" fill-rule="evenodd"/>
  <path d="M 60.00,160.00 L 60.00,170.00 L 70.00,170.00 L 70.00,170.00 L 60.00,170.00 L 60.00,180.00 L 70.00,180.00 L 70.00,180.00 L 80.00,180.00 L 80.00,160.00 L 70.00,160.00 L 70.00,160.00 L 60.00,160.00 Z" fill="white" fill-rule="evenodd"/>
</svg>