<svg xmlns="http://www.w3.org/2000/svg" viewBox="0 0 200 200" width="200" height="200">
  <path d="M 41.0,40.0 L 30.0,40.0 L 30.0,60.0 L 20.0,60.0 L 20.0,140.0 L 30.0,140.0 L 30.0,158.5 L 40.0,158.5 L 43.0,158.5 L 50.0,158.5 L 50.0,146.0 L 46.0,146.0 L 46.0,141.0 L 43.0,141.0 L 43.0,137.5 L 41.0,137.5 L 41.0,133.0 L 50.0,133.0 L 50.0,140.0 L 60.0,140.0 L 60.0,150.0 L 70.0,150.0 L 71.0,150.0 L 80.0,150.0 L 80.0,142.0 L 83.0,142.0 L 83.0,136.0 L 80.0,136.0 L 80.0,134.0 L 71.0,134.0 L 71.0,130.0 L 61.0,130.0 L 61.0,120.0 L 50.0,120.0 L 50.0,50.0 L 70.0,50.0 L 70.0,59.0 L 131.0,59.0 L 131.0,50.0 L 150.0,50.0 L 150.0,41.0 L 150.0,41.0 L 150.0,130.0 L 140.0,130.0 L 140.0,132.0 L 130.0,132.0 L 130.0,136.0 L 121.0,136.0 L 121.0,136.0 L 115.0,136.0 L 115.0,142.0 L 120.0,142.0 L 120.0,180.0 L 130.0,180.0 L 130.0,170.0 L 140.0,170.0 L 140.0,170.0 L 150.0,170.0 L 150.0,160.0 L 159.0,160.0 L 159.0,160.0 L 169.0,160.0 L 169.0,140.0 L 179.0,140.0 L 179.0,60.0 L 169.0,60.0 L 169.0,40.0 L 159.0,40.0 L 159.0,40.0 L 150.0,40.0 L 150.0,30.0 L 140.0,30.0 L 140.0,20.0 L 60.0,20.0 L 60.0,30.0 L 50.0,30.0 L 50.0,40.0 L 41.0,40.0 L 41.0,40.0 Z" fill="white" fill-rule="evenodd"/>
  <path d="M 60.0,153.0 L 50.0,153.0 L 50.0,170.0 L 60.0,170.0 L 60.0,153.0 Z" fill="white" fill-rule="evenodd"/>
  <path d="M 70.0,180.0 L 80.0,180.0 L 80.0,160.0 L 70.0,160.0 L 70.0,160.0 L 60.0,160.0 L 60.0,170.0 L 70.0,170.0 L 70.0,180.0 Z" fill="white" fill-rule="evenodd"/>
</svg>