<svg xmlns="http://www.w3.org/2000/svg" viewBox="0 0 200 200" width="200" height="200">
  <path d="M 40.00,20.00 L 40.00,30.00 L 30.00,30.00 L 30.00,40.00 L 20.00,40.00 L 20.00,160.00 L 30.00,160.00 L 30.00,170.00 L 40.00,170.00 L 40.00,180.00 L 50.00,180.00 L 60.00,180.00 L 160.00,180.00 L 160.00,170.00 L 170.00,170.00 L 170.00,160.00 L 180.00,160.00 L 180.00,40.00 L 170.00,40.00 L 170.00,30.00 L 160.00,30.00 L 160.00,20.00 L 50.00,20.00 L 40.00,20.00 Z M 57.00,82.00 L 75.00,82.00 L 75.00,140.00 L 57.00,140.00 L 57.00,82.00 Z M 90.00,80.00 L 100.00,80.00 L 100.00,81.50 L 140.00,81.50 L 140.00,140.00 L 124.00,140.00 L 124.00,100.00 L 108.00,100.00 L 108.00,140.00 L 90.00,140.00 L 90.00,80.00 Z M 75.00,75.00 L 57.00,75.00 L 57.00,57.00 L 75.00,57.00 L 75.00,75.00 Z" fill="white" fill-rule="evenodd"/>
</svg>