<svg xmlns="http://www.w3.org/2000/svg" viewBox="0 0 200 200" width="200" height="200">
  <path d="M 70.00,10.00 L 80.00,10.00 L 90.00,10.00 L 90.00,0.00 L 80.00,0.00 L 70.00,0.00 L 60.00,0.00 L 60.00,10.00 L 70.00,10.00 Z" fill="white" fill-rule="evenodd"/>
  <path d="M 60.00,40.00 L 60.00,30.00 L 60.00,20.00 L 60.00,10.00 L 50.00,10.00 L 50.00,20.00 L 50.00,30.00 L 50.00,40.00 L 60.00,40.00 Z" fill="white" fill-rule="evenodd"/>
  <path d="M 50.00,60.00 L 40.00,60.00 L 40.00,70.00 L 50.00,70.00 L 60.00,70.00 L 70.00,70.00 L 70.00,60.00 L 70.00,50.00 L 70.00,40.00 L 60.00,40.00 L 60.00,50.00 L 60.00,60.00 L 50.00,60.00 Z" fill="white" fill-rule="evenodd"/>
  <path d="M 40.00,50.00 L 30.00,50.00 L 20.00,50.00 L 10.00,50.00 L 10.00,60.00 L 20.00,60.00 L 30.00,60.00 L 40.00,60.00 L 40.00,50.00 Z" fill="white" fill-rule="evenodd"/>
  <path d="M 0.00,80.00 L 0.00,90.00 L 10.00,90.00 L 10.00,80.00 L 10.00,70.00 L 10.00,60.00 L 0.00,60.00 L 0.00,70.00 L 0.00,80.00 Z" fill="white" fill-rule="evenodd"/>
  <path d="M 20.00,90.00 L 10.00,90.00 L 10.00,100.00 L 20.00,100.00 L 20.00,90.00 Z" fill="white" fill-rule="evenodd"/>
  <path d="M 20.00,110.00 L 30.00,110.00 L 30.00,100.00 L 20.00,100.00 L 20.00,110.00 Z" fill="white" fill-rule="evenodd"/>
  <path d="M 50.00,110.00 L 40.00,110.00 L 30.00,110.00 L 30.00,120.00 L 40.00,120.00 L 50.00,120.00 L 60.00,120.00 L 70.00,120.00 L 70.00,110.00 L 60.00,110.00 L 50.00,110.00 Z" fill="white" fill-rule="evenodd"/>
  <path d="M 100.00,10.00 L 90.00,10.00 L 90.00,20.00 L 100.00,20.00 L 100.00,10.00 Z" fill="white" fill-rule="evenodd"/>
  <path d="M 100.00,20.00 L 100.00,30.00 L 110.00,30.00 L 110.00,20.00 L 100.00,20.00 Z" fill="white" fill-rule="evenodd"/>
  <path d="M 110.00,50.00 L 110.00,60.00 L 110.00,70.00 L 120.00,70.00 L 120.00,60.00 L 120.00,50.00 L 120.00,40.00 L 120.00,30.00 L 110.00,30.00 L 110.00,40.00 L 110.00,50.00 Z" fill="white" fill-rule="evenodd"/>
  <path d="M 110.00,90.00 L 110.00,80.00 L 110.00,70.00 L 100.00,70.00 L 100.00,80.00 L 100.00,90.00 L 110.00,90.00 Z" fill="white" fill-rule="evenodd"/>
  <path d="M 120.00,100.00 L 120.00,90.00 L 110.00,90.00 L 110.00,100.00 L 120.00,100.00 Z" fill="white" fill-rule="evenodd"/>
  <path d="M 120.00,110.00 L 130.00,110.00 L 130.00,100.00 L 120.00,100.00 L 120.00,110.00 Z" fill="white" fill-rule="evenodd"/>
  <path d="M 70.00,110.00 L 80.00,110.00 L 90.00,110.00 L 90.00,100.00 L 80.00,100.00 L 70.00,100.00 L 70.00,110.00 Z" fill="white" fill-rule="evenodd"/>
  <path d="M 90.00,120.00 L 100.00,120.00 L 100.00,110.00 L 90.00,110.00 L 90.00,120.00 Z" fill="white" fill-rule="evenodd"/>
  <path d="M 100.00,120.00 L 100.00,130.00 L 110.00,130.00 L 110.00,120.00 L 100.00,120.00 Z" fill="white" fill-rule="evenodd"/>
  <path d="M 120.00,140.00 L 120.00,130.00 L 110.00,130.00 L 110.00,140.00 L 120.00,140.00 Z" fill="white" fill-rule="evenodd"/>
  <path d="M 130.00,110.00 L 130.00,120.00 L 140.00,120.00 L 140.00,110.00 L 130.00,110.00 Z" fill="white" fill-rule="evenodd"/>
  <path d="M 150.00,130.00 L 150.00,120.00 L 140.00,120.00 L 140.00,130.00 L 150.00,130.00 Z" fill="white" fill-rule="evenodd"/>
  <path d="M 150.00,140.00 L 160.00,140.00 L 160.00,130.00 L 150.00,130.00 L 150.00,140.00 Z" fill="white" fill-rule="evenodd"/>
  <path d="M 120.00,150.00 L 130.00,150.00 L 130.00,140.00 L 120.00,140.00 L 120.00,150.00 Z" fill="white" fill-rule="evenodd"/>
  <path d="M 160.00,150.00 L 170.00,150.00 L 170.00,140.00 L 160.00,140.00 L 160.00,150.00 Z" fill="white" fill-rule="evenodd"/>
  <path d="M 130.00,160.00 L 140.00,160.00 L 140.00,150.00 L 130.00,150.00 L 130.00,160.00 Z" fill="white" fill-rule="evenodd"/>
  <path d="M 170.00,160.00 L 180.00,160.00 L 180.00,150.00 L 170.00,150.00 L 170.00,160.00 Z" fill="white" fill-rule="evenodd"/>
  <path d="M 140.00,170.00 L 150.00,170.00 L 150.00,160.00 L 140.00,160.00 L 140.00,170.00 Z" fill="white" fill-rule="evenodd"/>
  <path d="M 180.00,170.00 L 190.00,170.00 L 190.00,160.00 L 180.00,160.00 L 180.00,170.00 Z" fill="white" fill-rule="evenodd"/>
  <path d="M 170.00,190.00 L 170.00,200.00 L 180.00,200.00 L 190.00,200.00 L 200.00,200.00 L 200.00,190.00 L 200.00,180.00 L 200.00,170.00 L 190.00,170.00 L 190.00,180.00 L 190.00,190.00 L 180.00,190.00 L 170.00,190.00 Z" fill="white" fill-rule="evenodd"/>
  <path d="M 150.00,170.00 L 150.00,180.00 L 160.00,180.00 L 160.00,170.00 L 150.00,170.00 Z" fill="white" fill-rule="evenodd"/>
  <path d="M 170.00,190.00 L 170.00,180.00 L 160.00,180.00 L 160.00,190.00 L 170.00,190.00 Z" fill="white" fill-rule="evenodd"/>
</svg>