<svg xmlns="http://www.w3.org/2000/svg" viewBox="0 0 200 200" width="200" height="200">
  <path d="M 20.00,10.00 L 10.00,10.00 L 10.00,20.00 L 20.00,20.00 L 20.00,10.00 Z" fill="#4fd6a1" fill-rule="evenodd"/>
  <path d="M 90.00,60.00 L 85.00,60.00 L 85.00,70.00 L 80.00,70.00 L 80.00,80.00 L 75.00,80.00 L 75.00,90.00 L 70.00,90.00 L 70.00,100.00 L 65.00,100.00 L 65.00,110.00 L 60.00,110.00 L 60.00,120.00 L 55.00,120.00 L 55.00,130.00 L 50.00,130.00 L 50.00,140.00 L 45.00,140.00 L 45.00,150.00 L 40.00,150.00 L 40.00,160.00 L 160.00,160.00 L 160.00,150.00 L 155.00,150.00 L 155.00,140.00 L 150.00,140.00 L 150.00,130.00 L 145.00,130.00 L 145.00,120.00 L 140.00,120.00 L 140.00,110.00 L 135.00,110.00 L 135.00,100.00 L 130.00,100.00 L 130.00,90.00 L 125.00,90.00 L 125.00,80.00 L 120.00,80.00 L 120.00,70.00 L 115.00,70.00 L 115.00,60.00 L 110.00,60.00 L 110.00,50.00 L 105.00,50.00 L 105.00,40.00 L 95.00,40.00 L 95.00,50.00 L 90.00,50.00 L 90.00,60.00 Z" fill="#4fd6a1" fill-rule="evenodd"/>
  <path d="M 10.00,180.00 L 10.00,20.00 L 0.00,20.00 L 0.00,180.00 L 10.00,180.00 Z" fill="#4fd6a1" fill-rule="evenodd"/>
  <path d="M 10.00,180.00 L 10.00,190.00 L 20.00,190.00 L 20.00,180.00 L 10.00,180.00 Z" fill="#4fd6a1" fill-rule="evenodd"/>
  <path d="M 180.00,10.00 L 180.00,0.00 L 20.00,0.00 L 20.00,10.00 L 180.00,10.00 Z" fill="#4fd6a1" fill-rule="evenodd"/>
  <path d="M 180.00,10.00 L 180.00,20.00 L 190.00,20.00 L 190.00,10.00 L 180.00,10.00 Z" fill="#4fd6a1" fill-rule="evenodd"/>
  <path d="M 200.00,20.00 L 190.00,20.00 L 190.00,180.00 L 200.00,180.00 L 200.00,20.00 Z" fill="#4fd6a1" fill-rule="evenodd"/>
  <path d="M 190.00,190.00 L 190.00,180.00 L 180.00,180.00 L 180.00,190.00 L 190.00,190.00 Z" fill="#4fd6a1" fill-rule="evenodd"/>
  <path d="M 20.00,190.00 L 20.00,200.00 L 180.00,200.00 L 180.00,190.00 L 20.00,190.00 Z" fill="#4fd6a1" fill-rule="evenodd"/>
</svg>