<svg xmlns="http://www.w3.org/2000/svg" viewBox="0 0 200 200" width="200" height="200">
  <rect x="10" y="30" width="11" height="10" fill="white"/>
  <rect x="1" y="40" width="11" height="10" fill="white"/>
  <rect x="6" y="50" width="11" height="10" fill="white"/>
  <rect x="16" y="50" width="11" height="10" fill="white"/>
  <rect x="18" y="60" width="11" height="10" fill="white"/>
  <rect x="22" y="70" width="11" height="10" fill="white"/>
  <rect x="24" y="80" width="11" height="10" fill="white"/>
  <rect x="27" y="90" width="11" height="10" fill="white"/>
  <rect x="31" y="100" width="11" height="10" fill="white"/>
  <rect x="35" y="110" width="11" height="10" fill="white"/>
  <rect x="38" y="119" width="11" height="10" fill="white"/>
  <rect x="40" y="129" width="11" height="10" fill="white"/>
  <rect x="43" y="139" width="11" height="10" fill="white"/>
  <rect x="47" y="149" width="11" height="10" fill="white"/>
  <rect x="51" y="159" width="11" height="10" fill="white"/>
  <rect x="52" y="169" width="11" height="10" fill="white"/>
  <rect x="61" y="179" width="25" height="10" fill="white"/>
  <rect x="81" y="171" width="11" height="10" fill="white"/>
  <rect x="86" y="161" width="11" height="10" fill="white"/>
  <rect x="89" y="151" width="11" height="10" fill="white"/>
  <rect x="94" y="142" width="11" height="10" fill="white"/>
  <rect x="98" y="132" width="11" height="10" fill="white"/>
  <rect x="63" y="40" width="11" height="10" fill="white"/>
  <rect x="63" y="50" width="11" height="10" fill="white"/>
  <rect x="63" y="60" width="11" height="10" fill="white"/>
  <rect x="63" y="64" width="11" height="10" fill="white"/>
  <rect x="73" y="57" width="11" height="10" fill="white"/>
  <rect x="64" y="71" width="11" height="10" fill="white"/>
  <rect x="66" y="80" width="11" height="10" fill="white"/>
  <rect x="68" y="90" width="11" height="10" fill="white"/>
  <rect x="69" y="100" width="11" height="10" fill="white"/>
  <rect x="73" y="110" width="11" height="10" fill="white"/>
  <rect x="75" y="120" width="11" height="10" fill="white"/>
  <rect x="84" y="100" width="11" height="10" fill="white"/>
  <rect x="84" y="90" width="11" height="10" fill="white"/>
  <rect x="82" y="80" width="11" height="10" fill="white"/>
  <rect x="80" y="70" width="11" height="10" fill="white"/>
  <rect x="77" y="60" width="11" height="10" fill="white"/>
  <rect x="103" y="140" width="11" height="10" fill="white"/>
  <rect x="106" y="150" width="11" height="10" fill="white"/>
  <rect x="110" y="160" width="11" height="10" fill="white"/>
  <rect x="113" y="170" width="11" height="10" fill="white"/>
  <rect x="121" y="180" width="11" height="10" fill="white"/>
  <rect x="131" y="180" width="11" height="10" fill="white"/>
  <rect x="142" y="173" width="11" height="10" fill="white"/>
  <rect x="146" y="163" width="11" height="10" fill="white"/>
  <rect x="151" y="154" width="11" height="10" fill="white"/>
  <rect x="155" y="144" width="11" height="10" fill="white"/>
  <rect x="158" y="134" width="11" height="10" fill="white"/>
  <rect x="162" y="124" width="11" height="10" fill="white"/>
  <rect x="167" y="114" width="11" height="10" fill="white"/>
  <rect x="171" y="104" width="11" height="10" fill="white"/>
  <rect x="175" y="94" width="11" height="10" fill="white"/>
  <rect x="179" y="84" width="11" height="10" fill="white"/>
  <rect x="181" y="75" width="11" height="10" fill="white"/>
  <rect x="185" y="65" width="11" height="10" fill="white"/>
  <rect x="188" y="55" width="11" height="10" fill="white"/>
  <rect x="188" y="45" width="11" height="10" fill="white"/>
  <rect x="188" y="35" width="11" height="10" fill="white"/>
  <rect x="185" y="25" width="11" height="10" fill="white"/>
  <rect x="171" y="8" width="11" height="10" fill="white"/>
  <rect x="161" y="8" width="11" height="10" fill="white"/>
  <rect x="150" y="8" width="11" height="10" fill="white"/>
  <rect x="139" y="12" width="11" height="10" fill="white"/>
  <rect x="132" y="22" width="11" height="10" fill="white"/>
  <rect x="84" y="108" width="11" height="10" fill="white"/>
  <rect x="132" y="30" width="11" height="10" fill="white"/>
  <rect x="132" y="40" width="11" height="10" fill="white"/>
  <rect x="121" y="50" width="11" height="10" fill="white"/>
  <rect x="116" y="60" width="11" height="10" fill="white"/>
  <rect x="121" y="70" width="11" height="10" fill="white"/>
  <rect x="124" y="80" width="11" height="10" fill="white"/>
  <rect x="127" y="90" width="11" height="10" fill="white"/>
  <rect x="132" y="100" width="11" height="10" fill="white"/>
  <rect x="134" y="110" width="11" height="10" fill="white"/>
  <rect x="134" y="120" width="11" height="10" fill="white"/>
  <rect x="145" y="100" width="11" height="10" fill="white"/>
  <rect x="150" y="90" width="11" height="10" fill="white"/>
  <rect x="150" y="80" width="11" height="10" fill="white"/>
  <rect x="143" y="110" width="11" height="10" fill="white"/>
  <rect x="150" y="70" width="11" height="10" fill="white"/>
  <rect x="145" y="60" width="11" height="10" fill="white"/>
  <rect x="140" y="51" width="11" height="10" fill="white"/>
  <rect x="10" y="30" width="122" height="10" fill="white"/>
  <rect x="180" y="17" width="11" height="10" fill="white"/>
</svg>